<?xml version="1.0" encoding="UTF-8"?>
<svg xmlns="http://www.w3.org/2000/svg" xmlns:xlink="http://www.w3.org/1999/xlink" viewBox="0 0 144 144" width="144px" height="144px">
<g id="surface31074992">
<path style=" stroke:none;fill-rule:nonzero;fill:rgb(100%,100%,100%);fill-opacity:1;" d="M 126.492188 72 L 132 66.089844 L 125.445312 61.367188 L 129.691406 54.496094 L 122.34375 51.148438 L 125.167969 43.582031 L 117.304688 41.726562 L 118.601562 33.753906 L 110.527344 33.46875 L 110.242188 25.394531 L 102.269531 26.691406 L 100.414062 18.828125 L 92.851562 21.652344 L 89.5 14.304688 L 82.628906 18.550781 L 77.910156 12 L 72 17.507812 L 66.089844 12 L 61.367188 18.554688 L 54.496094 14.308594 L 51.148438 21.65625 L 43.582031 18.832031 L 41.726562 26.695312 L 33.753906 25.398438 L 33.46875 33.472656 L 25.394531 33.757812 L 26.691406 41.730469 L 18.828125 43.582031 L 21.652344 51.148438 L 14.304688 54.5 L 18.550781 61.371094 L 12 66.089844 L 17.507812 72 L 12 77.910156 L 18.554688 82.632812 L 14.308594 89.5 L 21.65625 92.851562 L 18.832031 100.417969 L 26.695312 102.273438 L 25.398438 110.246094 L 33.472656 110.53125 L 33.757812 118.605469 L 41.730469 117.308594 L 43.582031 125.171875 L 51.148438 122.347656 L 54.5 129.695312 L 61.371094 125.449219 L 66.089844 132 L 72 126.492188 L 77.910156 132 L 82.632812 125.445312 L 89.5 129.691406 L 92.851562 122.34375 L 100.417969 125.167969 L 102.273438 117.304688 L 110.246094 118.601562 L 110.53125 110.527344 L 118.605469 110.242188 L 117.308594 102.269531 L 125.171875 100.414062 L 122.347656 92.851562 L 129.695312 89.5 L 125.449219 82.628906 L 132 77.910156 Z M 72 21 C 73.65625 21 75 22.34375 75 24 C 75 25.65625 73.65625 27 72 27 C 70.34375 27 69 25.65625 69 24 C 69 22.34375 70.34375 21 72 21 Z M 27 54 C 28.65625 54 30 55.34375 30 57 C 30 58.65625 28.65625 60 27 60 C 25.34375 60 24 58.65625 24 57 C 24 55.34375 25.34375 54 27 54 Z M 26.425781 87 C 24.871094 82.277344 24 77.242188 24 72 C 24 69.886719 24.183594 67.824219 24.445312 65.785156 L 32.566406 61.433594 C 34.21875 60.550781 35.039062 58.75 34.78125 57 L 39 57 L 39 87 Z M 45 114 C 43.34375 114 42 112.65625 42 111 C 42 109.34375 43.34375 108 45 108 C 46.65625 108 48 109.34375 48 111 C 48 112.65625 46.65625 114 45 114 Z M 99 114 C 97.34375 114 96 112.65625 96 111 C 96 109.34375 97.34375 108 99 108 C 100.65625 108 102 109.34375 102 111 C 102 112.65625 100.65625 114 99 114 Z M 106.332031 105.511719 L 96.996094 104.023438 C 94.644531 103.648438 92.433594 105.25 92.058594 107.601562 L 90.679688 116.230469 C 84.9375 118.65625 78.628906 120 72 120 C 65.230469 120 58.800781 118.582031 52.960938 116.058594 L 51.671875 107.980469 C 51.296875 105.628906 49.085938 104.027344 46.734375 104.402344 L 37.9375 105.808594 C 35.863281 103.71875 33.980469 101.4375 32.320312 98.996094 L 71.851562 98.996094 L 71.851562 86.996094 L 60 86.996094 L 60 77.996094 L 68.617188 77.996094 C 85.039062 77.996094 71.578125 98.996094 93.355469 98.996094 L 111.679688 98.996094 C 110.089844 101.332031 108.292969 103.503906 106.332031 105.511719 Z M 60.714844 66 L 60.714844 57 L 76.308594 57 C 78.769531 57 80.761719 58.996094 80.761719 61.453125 L 80.761719 61.546875 C 80.761719 64.003906 78.769531 66 76.308594 66 Z M 119.78125 76.308594 L 111.949219 76.308594 L 111.949219 80.003906 C 111.949219 84.113281 109.386719 87 106.414062 87 C 98.773438 87 100.851562 76.390625 91.558594 71.761719 C 98.492188 70.617188 103.808594 64.46875 103.808594 57 C 103.808594 48.71875 97.292969 42 89.257812 42 L 34.558594 42 C 41.375 33.503906 51.007812 27.371094 62.058594 25.042969 L 68.949219 31.933594 C 70.632812 33.617188 73.363281 33.617188 75.046875 31.933594 L 81.9375 25.042969 C 95.855469 27.976562 107.554688 36.929688 114.167969 49.066406 L 110.667969 55.597656 C 109.542969 57.699219 110.332031 60.3125 112.429688 61.433594 L 119.457031 65.195312 C 119.78125 67.425781 120 69.683594 120 72 C 120 73.453125 119.910156 74.886719 119.78125 76.308594 Z M 117 60 C 115.34375 60 114 58.65625 114 57 C 114 55.34375 115.34375 54 117 54 C 118.65625 54 120 55.34375 120 57 C 120 58.65625 118.65625 60 117 60 Z M 117 60 "/>
</g>
</svg>
